<?xml version="1.0" standalone="no"?>
<!DOCTYPE svg PUBLIC "-//W3C//DTD SVG 20010904//EN"
 "http://www.w3.org/TR/2001/REC-SVG-20010904/DTD/svg10.dtd">
<svg version="1.0" xmlns="http://www.w3.org/2000/svg"
 width="357.000000pt" height="91.000000pt" viewBox="0 0 357.000000 91.000000"
 preserveAspectRatio="xMidYMid meet">

<g transform="translate(0.000000,91.000000) scale(0.100000,-0.100000)"
fill="#000000" stroke="none">
<path d="M757 763 c-4 -3 -7 -21 -7 -40 0 -24 -4 -33 -17 -34 -11 0 -13 -3 -5
-6 6 -2 12 -9 12 -15 0 -11 -145 -5 -215 8 l-30 5 25 -15 c14 -8 46 -15 72
-16 25 0 53 -3 62 -6 18 -7 22 -54 5 -54 -6 0 -9 -6 -6 -14 3 -8 2 -16 -4 -18
-5 -2 -12 -17 -15 -33 -3 -17 -10 -34 -17 -40 -38 -32 -87 -106 -87 -133 0
-18 -6 -32 -16 -36 -9 -4 -14 -9 -11 -12 11 -12 45 16 51 43 9 43 30 63 70 68
27 4 36 1 36 -10 0 -8 7 -15 15 -15 8 0 15 5 15 10 0 14 26 12 42 -2 7 -7 19
-13 26 -14 6 -1 19 -2 27 -2 8 -1 15 -9 15 -17 0 -9 9 -15 25 -15 18 0 25 -5
25 -19 0 -10 7 -22 16 -25 12 -5 14 -1 8 17 -4 12 -10 24 -14 27 -3 3 -9 13
-13 23 -3 9 -15 17 -25 17 -25 0 -36 15 -50 66 -16 55 -15 77 5 119 15 31 21
35 54 35 31 0 40 5 63 40 27 41 32 60 17 60 -8 0 -23 -25 -25 -42 -2 -15 -25
-30 -52 -33 -30 -3 -62 19 -44 30 8 5 7 11 0 20 -7 8 -9 19 -5 25 4 6 4 22 1
36 -6 24 -17 30 -29 17z m-8 -132 c9 -6 11 -18 7 -35 -6 -25 -24 -31 -38 -11
-5 6 -15 5 -30 -4 -18 -10 -20 -10 -10 0 6 7 12 23 12 36 0 17 6 23 23 23 12
0 28 -4 36 -9z"/>
<path d="M970 680 c0 -25 4 -30 25 -30 21 0 25 5 25 30 0 25 -4 30 -25 30 -21
0 -25 -5 -25 -30z"/>
<path d="M1080 535 l0 -175 100 0 100 0 0 40 0 40 -60 0 -60 0 0 135 0 135
-40 0 -40 0 0 -175z"/>
<path d="M1310 535 l0 -175 90 0 90 0 0 40 0 40 -50 0 -50 0 0 135 0 135 -40
0 -40 0 0 -175z"/>
<path d="M1504 688 c4 -13 9 -48 12 -78 11 -115 13 -121 36 -109 11 6 38 9 59
7 35 -3 40 -1 50 27 l11 30 7 -25 c5 -20 14 -26 44 -28 24 -2 37 -8 37 -18 0
-8 5 -14 10 -14 6 0 10 -8 11 -17 0 -14 2 -15 6 -3 4 8 11 20 18 26 6 7 13 38
14 70 1 33 6 77 11 99 13 56 14 55 -24 55 -40 0 -46 -10 -47 -88 0 -48 -16
-119 -18 -87 -1 6 -8 40 -16 78 -15 72 -31 97 -63 97 -16 0 -22 -11 -32 -52
-7 -29 -17 -71 -23 -93 -9 -38 -11 -39 -18 -15 -4 14 -7 55 -8 93 l-1 67 -41
0 c-38 0 -41 -2 -35 -22z"/>
<path d="M1920 658 c-6 -29 -18 -70 -26 -91 -8 -20 -14 -51 -14 -67 0 -16 -9
-53 -20 -82 -11 -29 -20 -54 -20 -55 0 -2 16 -3 35 -3 24 0 35 5 35 15 0 8 -4
15 -10 15 -5 0 -10 5 -10 10 0 6 9 10 20 10 23 0 27 15 5 24 -21 8 -19 40 5
61 10 9 25 42 31 72 10 42 15 51 20 37 4 -11 8 -33 8 -51 1 -22 10 -39 31 -56
17 -14 30 -28 30 -31 0 -3 -13 -6 -30 -6 -16 0 -30 5 -30 10 0 6 -9 10 -21 10
-33 0 -16 -24 26 -36 41 -11 70 -43 48 -51 -23 -8 -14 -33 12 -33 14 0 25 6
25 13 0 8 4 7 10 -3 16 -24 12 7 -4 38 -8 15 -17 50 -21 77 -4 28 -15 80 -26
116 -10 36 -19 76 -19 88 0 18 -6 21 -39 21 -39 0 -39 0 -51 -52z"/>
<path d="M2110 610 l0 -100 30 0 c23 0 30 4 30 20 l0 20 20 -20 c11 -11 20
-27 20 -35 0 -8 4 -15 9 -15 5 0 12 -10 14 -22 3 -14 5 -9 6 15 l1 37 50 0 50
0 0 100 0 100 -30 0 -29 0 -3 -97 -3 -97 -35 69 c-19 39 -39 73 -45 77 -5 4
-7 8 -3 8 23 0 -31 40 -54 40 l-28 0 0 -100z"/>
<path d="M2443 692 c-43 -21 -68 -99 -60 -189 8 -86 26 -117 27 -45 0 45 3 52
20 52 17 0 20 7 20 40 0 22 4 40 9 40 5 0 11 9 14 20 3 14 14 20 32 20 18 0
29 -6 32 -20 4 -15 14 -20 39 -20 36 0 39 5 28 58 -4 21 -14 32 -30 36 -13 4
-24 11 -24 16 0 15 -70 10 -107 -8z"/>
<path d="M2630 698 c0 -17 49 -118 58 -118 4 0 13 -14 21 -31 7 -17 24 -34 37
-39 13 -5 24 -11 24 -14 0 -2 3 -11 6 -20 5 -12 0 -16 -20 -16 -14 0 -26 -4
-26 -10 0 -5 9 -10 20 -10 10 0 24 -10 31 -21 9 -18 8 -24 -5 -31 -22 -12 -20
-28 4 -28 18 0 20 7 20 74 0 42 6 87 13 103 8 15 26 52 40 81 38 73 36 92 -8
92 -24 0 -35 -5 -35 -15 0 -8 -4 -15 -8 -15 -4 0 -13 -15 -20 -32 l-13 -33
-26 48 c-25 45 -28 47 -70 47 -26 0 -43 -5 -43 -12z"/>
<path d="M970 500 l0 -140 25 0 25 0 0 140 0 140 -25 0 -25 0 0 -140z"/>
<path d="M2511 533 c0 -10 4 -27 8 -37 7 -18 8 -18 14 -3 4 11 18 17 37 17
l30 0 0 -75 c0 -43 4 -75 10 -75 6 0 10 38 10 95 l0 95 -55 0 c-46 0 -55 -3
-54 -17z"/>
<path d="M1690 470 c0 -11 4 -20 9 -20 5 0 17 -20 28 -45 10 -25 21 -45 26
-45 14 0 7 68 -8 74 -8 3 -20 17 -25 31 -11 30 -30 33 -30 5z"/>
<path d="M1580 466 c0 -7 12 -16 28 -19 34 -7 39 -2 19 18 -19 19 -47 20 -47
1z"/>
<path d="M2163 420 c0 -36 2 -50 4 -32 2 17 2 47 0 65 -2 17 -4 3 -4 -33z"/>
<path d="M2300 460 c0 -13 7 -20 20 -20 13 0 20 7 20 20 0 13 -7 20 -20 20
-13 0 -20 -7 -20 -20z"/>
<path d="M2450 403 c0 -32 4 -43 15 -43 19 0 20 40 0 66 -13 18 -14 16 -15
-23z"/>
<path d="M2548 418 c-3 -13 -9 -31 -13 -40 -4 -11 -3 -18 3 -18 6 0 14 16 18
35 7 39 0 60 -8 23z"/>
<path d="M1540 422 c0 -13 60 -34 78 -27 14 6 10 10 -18 20 -41 16 -60 18 -60
7z"/>
<path d="M2300 400 c0 -5 9 -10 20 -10 11 0 20 5 20 10 0 6 -9 10 -20 10 -11
0 -20 -4 -20 -10z"/>
<path d="M1200 255 c0 -8 2 -15 4 -15 2 0 6 7 10 15 3 8 1 15 -4 15 -6 0 -10
-7 -10 -15z"/>
<path d="M1230 255 c-10 -12 -10 -15 4 -15 12 0 16 -9 16 -35 0 -19 4 -35 9
-35 5 0 9 24 8 53 -1 28 -3 44 -5 34 -2 -9 -8 -15 -13 -11 -5 3 -7 10 -4 15
10 14 -1 10 -15 -6z"/>
<path d="M1280 266 c0 -2 8 -10 18 -17 15 -13 16 -12 3 4 -13 16 -21 21 -21
13z"/>
<path d="M2014 261 c4 -5 2 -21 -3 -34 -7 -18 -7 -27 1 -29 7 -3 3 -13 -10
-26 -12 -12 -28 -19 -37 -16 -18 7 -20 44 -2 44 8 0 7 4 -3 11 -12 9 -11 10 7
6 15 -3 20 -1 16 9 -12 32 -38 6 -42 -42 -3 -36 19 -50 49 -34 23 13 33 13 25
1 -3 -5 -2 -12 3 -15 5 -3 8 26 8 65 0 38 -4 69 -9 69 -4 0 -6 -4 -3 -9z"/>
<path d="M2306 261 c-4 -5 3 -7 14 -4 23 6 26 13 6 13 -8 0 -17 -4 -20 -9z"/>
<path d="M2483 217 c0 -32 4 -54 7 -50 4 5 4 31 0 58 l-8 50 1 -58z"/>
<path d="M2280 248 c0 -10 -4 -18 -8 -18 -5 0 -9 -16 -10 -35 -1 -25 4 -38 18
-45 24 -13 57 -13 65 0 3 6 -1 7 -10 4 -9 -4 -24 1 -34 10 -10 9 -21 13 -25 9
-4 -4 -6 5 -4 20 3 16 9 32 16 36 7 4 8 12 2 21 -8 13 -10 12 -10 -2z"/>
<path d="M2335 250 c-18 -7 -17 -8 8 -15 32 -8 43 -3 25 12 -7 6 -22 7 -33 3z"/>
<path d="M1351 184 c1 -42 4 -52 11 -39 6 9 8 27 5 41 -2 13 0 21 4 18 5 -3 9
0 9 5 0 6 7 11 15 11 8 0 15 5 15 10 0 7 -6 7 -19 0 -25 -13 -34 -13 -26 0 3
6 1 10 -4 10 -7 0 -10 -23 -10 -56z"/>
<path d="M1629 240 c-5 -23 -4 -100 2 -100 4 0 6 8 4 18 -1 9 2 25 7 35 5 11
5 24 -1 35 -6 9 -11 15 -12 12z"/>
<path d="M1784 231 c3 -5 -2 -8 -11 -7 -13 1 -17 -8 -18 -38 0 -25 5 -41 14
-44 9 -3 11 0 7 9 -4 8 0 5 9 -6 15 -19 16 -19 39 10 l24 29 -27 28 c-24 26
-49 39 -37 19z m51 -44 c4 4 0 -4 -11 -18 -15 -22 -21 -24 -32 -12 -7 7 -17
13 -22 13 -4 0 -6 9 -3 19 7 27 35 31 49 9 5 -10 14 -15 19 -11z"/>
<path d="M2104 231 c3 -5 -2 -8 -11 -7 -14 1 -18 -7 -18 -38 0 -25 5 -41 14
-44 9 -3 11 0 7 9 -4 8 0 5 9 -6 15 -19 16 -19 39 10 l24 29 -27 28 c-24 26
-49 39 -37 19z m51 -44 c4 4 0 -4 -11 -18 -15 -22 -21 -24 -32 -12 -7 7 -17
13 -22 13 -4 0 -6 9 -3 19 7 27 35 31 49 9 5 -10 14 -15 19 -11z"/>
<path d="M1434 215 c-15 -38 13 -89 43 -78 24 9 14 25 -13 19 -23 -6 -24 -5
-14 13 8 16 18 19 45 16 20 -3 35 0 35 5 0 6 -5 10 -11 10 -5 0 -7 6 -3 13 4
6 4 9 -1 5 -4 -4 -14 -3 -22 3 -9 9 -13 8 -13 0 0 -6 5 -11 11 -11 5 0 7 -5 4
-10 -4 -6 -11 -8 -16 -4 -5 3 -16 0 -24 -6 -11 -9 -14 -8 -12 8 0 12 6 18 14
15 7 -3 13 -1 13 4 0 14 -31 12 -36 -2z"/>
<path d="M1560 202 c0 -17 4 -33 9 -36 10 -7 9 49 -2 60 -4 4 -7 -7 -7 -24z"/>
<path d="M1660 223 c0 -3 7 -11 16 -17 8 -6 16 -26 16 -44 1 -18 5 -32 10 -32
5 0 8 22 7 48 -2 42 -5 48 -26 50 -13 1 -23 -1 -23 -5z"/>
<path d="M2420 220 c0 -5 5 -10 10 -10 6 0 10 5 10 10 0 6 -4 10 -10 10 -5 0
-10 -4 -10 -10z"/>
<path d="M2335 200 c-4 -6 -4 -14 0 -18 3 -3 10 0 15 8 9 14 14 7 11 -12 0 -5
4 -8 10 -8 6 0 9 8 7 17 -4 21 -33 29 -43 13z"/>
<path d="M2423 160 c5 -31 17 -37 15 -7 -1 15 -6 27 -10 27 -4 0 -7 -9 -5 -20z"/>
<path d="M1503 155 c0 -8 4 -12 9 -9 5 3 6 10 3 15 -9 13 -12 11 -12 -6z"/>
<path d="M1250 145 c0 -8 4 -15 8 -15 5 0 9 7 9 15 0 8 -4 15 -9 15 -4 0 -8
-7 -8 -15z"/>
<path d="M2360 149 c0 -5 5 -7 10 -4 6 3 10 8 10 11 0 2 -4 4 -10 4 -5 0 -10
-5 -10 -11z"/>
<path d="M1560 140 c0 -5 5 -10 11 -10 5 0 7 5 4 10 -3 6 -8 10 -11 10 -2 0
-4 -4 -4 -10z"/>
<path d="M2480 140 c0 -5 5 -10 10 -10 6 0 10 5 10 10 0 6 -4 10 -10 10 -5 0
-10 -4 -10 -10z"/>
</g>
</svg>
