<?xml version="1.0" encoding="UTF-8"?>
<svg version="1.1" xmlns="http://www.w3.org/2000/svg" width="40" height="42">
<path d="M0 0 C13.2 0 26.4 0 40 0 C40 13.86 40 27.72 40 42 C26.8 42 13.6 42 0 42 C0 28.14 0 14.28 0 0 Z " fill="#323332" transform="translate(0,0)"/>
<path d="M0 0 C4.33988329 3.33588044 7.23363904 7.02856093 8.125 12.5 C8.29863504 17.80043807 7.19739854 22.58705283 3.56640625 26.57421875 C-1.1421931 30.67222666 -4.87345776 31.4153588 -11 31 C-15.68170268 29.25583626 -18.21249191 27.12964161 -21 23 C-22.77325971 17.68022086 -23.28067182 11.80375652 -20.90625 6.60546875 C-15.6566801 -0.91984555 -8.58205439 -4.04927918 0 0 Z " fill="#323332" transform="translate(27,6)"/>
<path d="M0 0 C4.33988329 3.33588044 7.23363904 7.02856093 8.125 12.5 C8.29863504 17.80043807 7.19739854 22.58705283 3.56640625 26.57421875 C-1.1421931 30.67222666 -4.87345776 31.4153588 -11 31 C-15.68170268 29.25583626 -18.21249191 27.12964161 -21 23 C-22.77325971 17.68022086 -23.28067182 11.80375652 -20.90625 6.60546875 C-15.6566801 -0.91984555 -8.58205439 -4.04927918 0 0 Z M-18.8125 6 C-20.65146698 10.64581132 -20.65825574 15.07393233 -20 20 C-18.43559628 23.51662056 -18.43559628 23.51662056 -16 26 C-15.443125 26.61875 -14.88625 27.2375 -14.3125 27.875 C-10.61367749 29.67442716 -7.03041366 29.52633309 -3 29 C1.21134995 27.26052937 3.15689226 25.1469924 5 21 C6.37248533 14.9218507 6.1247419 11.60298547 3 6 C0.59164655 3.22674452 -1.22722323 1.18110883 -4.98828125 0.796875 C-11.08572413 0.67390136 -14.56870172 1.3171881 -18.8125 6 Z " fill="#037A21" transform="translate(27,6)"/>
<path d="M0 0 C0.66 0 1.32 0 2 0 C3.7143618 1.95927063 5.38405168 3.95880212 7 6 C6.67 6.66 6.34 7.32 6 8 C5.34 8 4.68 8 4 8 C3.67 7.34 3.34 6.68 3 6 C3 7.32 3 8.64 3 10 C3.66 10.45375 4.32 10.9075 5 11.375 C7 13 7 13 7.375 16.0625 C7 19 7 19 5 21 C4.01 21 3.02 21 2 21 C2 21.99 2 22.98 2 24 C1.34 24 0.68 24 0 24 C0 23.01 0 22.02 0 21 C-1.65 20.67 -3.3 20.34 -5 20 C-5.33 18.35 -5.66 16.7 -6 15 C-5.01 15 -4.02 15 -3 15 C-2.01 16.485 -2.01 16.485 -1 18 C-0.67 16.35 -0.34 14.7 0 13 C-0.639375 12.690625 -1.27875 12.38125 -1.9375 12.0625 C-4 11 -4 11 -5 10 C-5.04080783 8.00041636 -5.04254356 5.99954746 -5 4 C-3.35 3.34 -1.7 2.68 0 2 C0 1.34 0 0.68 0 0 Z " fill="#097024" transform="translate(19,9)"/>
<path d="M0 0 C2.4375 0.1875 2.4375 0.1875 5 1 C6.3125 3.0625 6.3125 3.0625 7 5 C6.01 5.33 5.02 5.66 4 6 C3.34 5.01 2.68 4.02 2 3 C1.34 4.32 0.68 5.64 0 7 C-0.38133299 5.0085944 -0.71325582 3.00720923 -1 1 C-0.67 0.67 -0.34 0.34 0 0 Z " fill="#017C21" transform="translate(19,11)"/>
</svg>
